<svg xmlns="http://www.w3.org/2000/svg" width="3531" height="2206" viewBox="0 0 3531 2206">
  <g fill="none" fill-rule="evenodd" transform="translate(197 197)">
    <path stroke="#84E29C" stroke-width="393.12" d="M556.456745,1812.01763 C1518.0348,1812.01763 2055.76964,1812.01763 2689.19423,1812.01763 C3386.0653,1635.19032 3117.19788,974.688309 2896.69539,898.236502 C2189.94332,543.021642 1664.68976,299.624052 1092.11137,12.0196341 C964.698376,-15.0245426 632.384488,12.0196341 405.121313,12.0196341 C105.050713,42.1842927 2.04636308e-12,269.459393 2.04636308e-12,389.597947 C2.04636308e-12,453.741187 83.2084853,847.61535 249.625456,1571.22044 C295.477322,1716.08721 397.754419,1796.35294 556.456745,1812.01763 Z" stroke-linejoin="round"/>
    <path stroke="#FFFFFF" stroke-width="373.36" d="M556.456745,1812.01763 C1518.0348,1812.01763 2055.76964,1812.01763 2689.19423,1812.01763 C3386.0653,1635.19032 3117.19788,974.688309 2896.69539,898.236502 C2189.94332,543.021642 1664.68976,299.624052 1092.11137,12.0196341 C964.698376,-15.0245426 632.384488,12.0196341 405.121313,12.0196341 C105.050713,42.1842927 -1.59161573e-12,269.459393 -1.59161573e-12,389.597947 C-1.59161573e-12,453.741187 83.2084853,847.61535 249.625456,1571.22044 C295.477322,1716.08721 397.754419,1796.35294 556.456745,1812.01763 Z" stroke-linejoin="round"/>
    <path stroke="#313D46" stroke-width="312" d="M556.456745,1812.01763 C1518.0348,1812.01763 2055.76964,1812.01763 2689.19423,1812.01763 C3386.0653,1635.19032 3117.19788,974.688309 2896.69539,898.236502 C2189.94332,543.021642 1664.68976,299.624052 1092.11137,12.0196341 C964.698376,-15.0245426 632.384488,12.0196341 405.121313,12.0196341 C105.050713,42.1842927 -1.59161573e-12,269.459393 -1.59161573e-12,389.597947 C-1.59161573e-12,453.741187 83.2084853,847.61535 249.625456,1571.22044 C295.477322,1716.08721 397.754419,1796.35294 556.456745,1812.01763 Z" stroke-linejoin="round"/>
    <path stroke="#FF9900" stroke-width="20.8" d="M556.456745,1812.01763 C1518.0348,1812.01763 2055.76964,1812.01763 2689.19423,1812.01763 C3386.0653,1635.19032 3117.19788,974.688309 2896.69539,898.236502 C2189.94332,543.021642 1664.68976,299.624052 1092.11137,12.0196341 C964.698376,-15.0245426 632.384488,12.0196341 405.121313,12.0196341 C105.050713,42.1842927 -1.59161573e-12,269.459393 -1.59161573e-12,389.597947 C-1.59161573e-12,453.741187 83.2084853,847.61535 249.625456,1571.22044 C295.477322,1716.08721 397.754419,1796.35294 556.456745,1812.01763 Z" stroke-dasharray="62.4 41.6"/>
  </g>
</svg>
