<svg xmlns="http://www.w3.org/2000/svg" width="3180" height="2499" viewBox="0 0 3180 2499">
  <g fill="none" fill-rule="evenodd" transform="rotate(90 1393 1590)">
    <path stroke="#84E29C" stroke-width="393.12" d="M2101.69921,552.358044 C2101.69921,1559.35804 2101.69921,1668.35804 2101.69921,2491.35804 C2086.69921,2843.35804 1804.69921,2791.35804 1488.19921,2770.85804 C1162.19921,2683.85804 1340.69921,2350.35804 1328.19921,2099.85804 C1295.19921,1934.35804 1203.69921,1915.85804 1180.19921,1758.85804 C1108.19921,1351.35804 744.199213,981.358044 548.199213,929.358044 C70.1992135,808.858044 21.6992135,704.358044 4.69921347,479.358044 C-9.30078653,169.358044 2.14008396,127.135638 120.699213,48.858044 C289.199213,-47.141956 390.699213,90.858044 560.199213,79.858044 C692.673429,70.1058705 705.925942,17.0393 848.699213,8.358044 C1236.69921,-4.141956 1330.69921,-4.141956 1629.69921,18.858044 C1650.19921,18.858044 2146.69921,117.858044 2101.69921,552.358044 Z" stroke-linejoin="round"/>
    <path stroke="#FFFFFF" stroke-width="373.36" d="M2101.69921,552.358044 C2101.69921,1559.35804 2101.69921,1668.35804 2101.69921,2491.35804 C2086.69921,2843.35804 1804.69921,2791.35804 1488.19921,2770.85804 C1162.19921,2683.85804 1340.69921,2350.35804 1328.19921,2099.85804 C1295.19921,1934.35804 1203.69921,1915.85804 1180.19921,1758.85804 C1108.19921,1351.35804 744.199213,981.358044 548.199213,929.358044 C70.1992135,808.858044 21.6992135,704.358044 4.69921347,479.358044 C-9.30078653,169.358044 2.14008396,127.135638 120.699213,48.858044 C289.199213,-47.141956 390.699213,90.858044 560.199213,79.858044 C692.673429,70.1058705 705.925942,17.0393 848.699213,8.358044 C1236.69921,-4.141956 1330.69921,-4.141956 1629.69921,18.858044 C1650.19921,18.858044 2146.69921,117.858044 2101.69921,552.358044 Z" stroke-linejoin="round"/>
    <path stroke="#313D46" stroke-width="312" d="M2101.69921,552.358044 C2101.69921,1559.35804 2101.69921,1668.35804 2101.69921,2491.35804 C2086.69921,2843.35804 1804.69921,2791.35804 1488.19921,2770.85804 C1162.19921,2683.85804 1340.69921,2350.35804 1328.19921,2099.85804 C1295.19921,1934.35804 1203.69921,1915.85804 1180.19921,1758.85804 C1108.19921,1351.35804 744.199213,981.358044 548.199213,929.358044 C70.1992135,808.858044 21.6992135,704.358044 4.69921347,479.358044 C-9.30078653,169.358044 2.14008396,127.135638 120.699213,48.858044 C289.199213,-47.141956 390.699213,90.858044 560.199213,79.858044 C692.673429,70.1058705 705.925942,17.0393 848.699213,8.358044 C1236.69921,-4.141956 1330.69921,-4.141956 1629.69921,18.858044 C1650.19921,18.858044 2146.69921,117.858044 2101.69921,552.358044 Z" stroke-linejoin="round"/>
    <path stroke="#FF9900" stroke-width="20.8" d="M2101.69921,552.358044 C2101.69921,1559.35804 2101.69921,1668.35804 2101.69921,2491.35804 C2086.69921,2843.35804 1804.69921,2791.35804 1488.19921,2770.85804 C1162.19921,2683.85804 1340.69921,2350.35804 1328.19921,2099.85804 C1295.19921,1934.35804 1203.69921,1915.85804 1180.19921,1758.85804 C1108.19921,1351.35804 744.199213,981.358044 548.199213,929.358044 C70.1992135,808.858044 21.6992135,704.358044 4.69921347,479.358044 C-9.30078653,169.358044 2.14008396,127.135638 120.699213,48.858044 C289.199213,-47.141956 390.699213,90.858044 560.199213,79.858044 C692.673429,70.1058705 705.925942,17.0393 848.699213,8.358044 C1236.69921,-4.141956 1330.69921,-4.141956 1629.69921,18.858044 C1650.19921,18.858044 2146.69921,117.858044 2101.69921,552.358044 Z" stroke-dasharray="62.4"/>
  </g>
</svg>
