<svg xmlns="http://www.w3.org/2000/svg" width="2146" height="2345" viewBox="0 0 2146 2345">
  <g fill="none" fill-rule="evenodd" transform="translate(164 164)">
    <path stroke="#84E29C" stroke-width="327.56" d="M6.34303987,598.739414 C-28.6152303,681.995965 90.4288947,797.690845 131.787975,954.302873 C180.587313,1138.97706 -25.4968869,1688.84228 23.7401133,1804.42775 C114.336194,2017.16411 762.295117,2017 762.295117,2017 C774.330828,2017 1619.67541,1911.91732 1657.80673,1790.53343 C1678.48627,1724.50803 1633.13353,1647.1593 1588.10903,1609.30547 C1501.99898,1536.49701 1369.93441,1580.25867 1299.08783,1584.79894 C1240.55051,1588.35457 1092.67539,1597.76333 978.554963,1577.79707 C904.973002,1564.94209 840.800778,1520.79752 839.159545,1518.55473 C768.039433,1422.77141 767.328232,1362.27092 818.261173,1277.86562 C834.235845,1251.49922 1058.53773,1087.72122 1212.15718,1051.39905 C1477.43519,988.655773 1557.25384,1043.57665 1693.03854,950.364324 C1769.90297,897.576826 1793.81027,845.992773 1801.0317,828.433408 C1839.32714,735.439888 1804.69712,642.719879 1776.68674,570.622549 C1678.21274,316.969048 1606.54555,82.5159729 1337.60211,13.0990453 C1121.56109,-42.6423647 846.818634,92.5811539 630.23054,173.376112 C528.911735,211.229945 368.125576,181.800231 316.645557,211.667562 C166.800953,298.753258 288.74459,330.152247 187.699324,441.416259 C120.189926,516.303393 51.6410801,490.757526 6.34303987,598.739414 L6.34303987,598.739414 Z"/>
    <path stroke="#FFFFFF" stroke-width="310.68" d="M6.34303987,598.739414 C-28.6152303,681.995965 90.4288947,797.690845 131.787975,954.302873 C180.587313,1138.97706 -25.4968869,1688.84228 23.7401133,1804.42775 C114.336194,2017.16411 762.295117,2017 762.295117,2017 C774.330828,2017 1619.67541,1911.91732 1657.80673,1790.53343 C1678.48627,1724.50803 1633.13353,1647.1593 1588.10903,1609.30547 C1501.99898,1536.49701 1369.93441,1580.25867 1299.08783,1584.79894 C1240.55051,1588.35457 1092.67539,1597.76333 978.554963,1577.79707 C904.973002,1564.94209 840.800778,1520.79752 839.159545,1518.55473 C768.039433,1422.77141 767.328232,1362.27092 818.261173,1277.86562 C834.235845,1251.49922 1058.53773,1087.72122 1212.15718,1051.39905 C1477.43519,988.655773 1557.25384,1043.57665 1693.03854,950.364324 C1769.90297,897.576826 1793.81027,845.992773 1801.0317,828.433408 C1839.32714,735.439888 1804.69712,642.719879 1776.68674,570.622549 C1678.21274,316.969048 1606.54555,82.5159729 1337.60211,13.0990453 C1121.56109,-42.6423647 846.818634,92.5811539 630.23054,173.376112 C528.911735,211.229945 368.125576,181.800231 316.645557,211.667562 C166.800953,298.753258 288.74459,330.152247 187.699324,441.416259 C120.189926,516.303393 51.6410801,490.757526 6.34303987,598.739414 L6.34303987,598.739414 Z"/>
    <path stroke="#313D46" stroke-width="280" d="M6.34303987,598.739414 C-28.6152303,681.995965 90.4288947,797.690845 131.787975,954.302873 C180.587313,1138.97706 -25.4968869,1688.84228 23.7401133,1804.42775 C114.336194,2017.16411 762.295117,2017 762.295117,2017 C774.330828,2017 1619.67541,1911.91732 1657.80673,1790.53343 C1678.48627,1724.50803 1633.13353,1647.1593 1588.10903,1609.30547 C1501.99898,1536.49701 1369.93441,1580.25867 1299.08783,1584.79894 C1240.55051,1588.35457 1092.67539,1597.76333 978.554963,1577.79707 C904.973002,1564.94209 840.800778,1520.79752 839.159545,1518.55473 C768.039433,1422.77141 767.328232,1362.27092 818.261173,1277.86562 C834.235845,1251.49922 1058.53773,1087.72122 1212.15718,1051.39905 C1477.43519,988.655773 1557.25384,1043.57665 1693.03854,950.364324 C1769.90297,897.576826 1793.81027,845.992773 1801.0317,828.433408 C1839.32714,735.439888 1804.69712,642.719879 1776.68674,570.622549 C1678.21274,316.969048 1606.54555,82.5159729 1337.60211,13.0990453 C1121.56109,-42.6423647 846.818634,92.5811539 630.23054,173.376112 C528.911735,211.229945 368.125576,181.800231 316.645557,211.667562 C166.800953,298.753258 288.74459,330.152247 187.699324,441.416259 C120.189926,516.303393 51.6410801,490.757526 6.34303987,598.739414 L6.34303987,598.739414 Z"/>
    <path stroke="#FF9900" stroke-width="10.4" d="M6.34303987,598.739414 C-28.6152303,681.995965 90.4288947,797.690845 131.787975,954.302873 C180.587313,1138.97706 -25.4968869,1688.84228 23.7401133,1804.42775 C114.336194,2017.16411 762.295117,2017 762.295117,2017 C774.330828,2017 1619.67541,1911.91732 1657.80673,1790.53343 C1678.48627,1724.50803 1633.13353,1647.1593 1588.10903,1609.30547 C1501.99898,1536.49701 1369.93441,1580.25867 1299.08783,1584.79894 C1240.55051,1588.35457 1092.67539,1597.76333 978.554963,1577.79707 C904.973002,1564.94209 840.800778,1520.79752 839.159545,1518.55473 C768.039433,1422.77141 767.328232,1362.27092 818.261173,1277.86562 C834.235845,1251.49922 1058.53773,1087.72122 1212.15718,1051.39905 C1477.43519,988.655773 1557.25384,1043.57665 1693.03854,950.364324 C1769.90297,897.576826 1793.81027,845.992773 1801.0317,828.433408 C1839.32714,735.439888 1804.69712,642.719879 1776.68674,570.622549 C1678.21274,316.969048 1606.54555,82.5159729 1337.60211,13.0990453 C1121.56109,-42.6423647 846.818634,92.5811539 630.23054,173.376112 C528.911735,211.229945 368.125576,181.800231 316.645557,211.667562 C166.800953,298.753258 288.74459,330.152247 187.699324,441.416259 C120.189926,516.303393 51.6410801,490.757526 6.34303987,598.739414 L6.34303987,598.739414 Z" stroke-dasharray="22.2 35"/>
  </g>
</svg>
