<?xml version="1.0" encoding="utf-8"?>
<!-- Generator: Adobe Illustrator 23.0.6, SVG Export Plug-In . SVG Version: 6.00 Build 0)  -->
<svg version="1.1" id="Layer_1" xmlns="http://www.w3.org/2000/svg" xmlns:xlink="http://www.w3.org/1999/xlink" x="0px" y="0px"
	 viewBox="0 0 2976 2369" style="enable-background:new 0 0 2976 2369;" xml:space="preserve">
<style type="text/css">
	.st0{fill:none;stroke:#84E29C;stroke-width:393.12;stroke-linejoin:round;stroke-miterlimit:10;}
	.st1{fill:none;stroke:#FFFFFF;stroke-width:373.36;stroke-miterlimit:10;}
	.st2{fill:none;stroke:#313D46;stroke-width:312;stroke-linejoin:round;stroke-miterlimit:10;}
	.st3{fill:none;stroke:#FF9900;stroke-width:20.8;stroke-linejoin:round;}
	.st4{fill:none;stroke:#FF9900;stroke-width:20.8;stroke-linejoin:round;stroke-dasharray:61.9146,61.9146;}
</style>
<polyline class="st0" points="1435.1,1237.9 1395.4,1238.1 1355.7,1238.4 1316,1238.7 1276.3,1238.9 1236.5,1239.1 1196.8,1239.4 
	1157.1,1239.6 1117.4,1239.7 1077.7,1239.9 1038,1240.1 998.3,1240.3 958.6,1240.8 918.8,1241.3 879.1,1241.8 839.4,1242.7 
	799.7,1244.1 760.1,1246.5 720.5,1249.9 681,1254.2 641.6,1258.9 602.1,1263.5 562.7,1269.2 524.1,1278.3 488.1,1292.3 
	454.4,1311.9 424,1337.1 397.4,1367 374.4,1401 355.6,1436 340.6,1472.7 329.4,1510.8 321.3,1549.7 315.1,1588.9 309.6,1628.3 
	304.6,1667.7 300.1,1707.2 296.5,1746.7 296.5,1746.7 293.9,1786.3 292.7,1826 294,1865.7 299.3,1905 309.4,1942 325.2,1978.2 
	346.7,2011.2 373.8,2040.3 405.7,2064.9 441.4,2084.6 478.5,2098.6 517,2108 556.4,2113.6 596,2117 635.7,2118.8 675.4,2119.9 
	715,2120.5 754.6,2119.4 793.7,2114.8 831.5,2104.9 867.2,2088.9 899.9,2066.8 929.4,2039.7 956,2009.3 980.8,1977.5 1005.3,1946 
	1031,1915.7 1059.1,1888.2 1090.4,1864.8 1124.9,1846.2 1162.2,1833.3 1201.1,1826.3 1240.7,1825.7 1280.2,1831 1318.4,1842.6 
	1354.6,1860.4 1387.3,1883.2 1416.8,1910 1443.2,1939.7 1467.8,1970.9 1492,2002.3 1517.7,2032.3 1546.4,2059.2 1578.8,2081.2 
	1614.8,2097.1 1653.4,2106.8 1693.5,2111.2 1733.5,2112.4 1773.4,2112.2 1813.3,2111.2 1853,2109.7 1892.7,2107.5 1932.3,2104.6 
	1971.7,2100.1 2010.5,2093.1 2048.3,2082.1 2083.8,2065.7 2115.7,2043.3 2142.3,2014.8 2162.5,1981.2 2175.8,1943.9 2183.1,1904.3 
	2186.8,1863.6 2190.7,1823.2 2198.2,1784 2211.2,1746.9 2230.3,1712.6 2255,1682.1 2283.8,1655.8 2316.4,1632.7 2351.6,1613.6 
	2388.7,1598.2 2426.7,1584.9 2464.5,1572 2501.3,1557 2535.5,1538 2566.2,1513.7 2591.7,1484.6 2612.1,1451.2 2627.1,1414.3 
	2638,1373.7 2645.2,1332.1 2650.8,1288.6 2655.2,1244.5 2658.7,1199.8 2661.4,1154.6 2663.3,1108.7 2664.6,1062.8 2665.5,1016.9 
	2666.1,968 2666.5,916.6 2667.3,864.8 2668.2,813 2669,761.3 2669.4,710 2668.4,658.7 2665.4,608.9 2658.7,559.9 2647.2,512.4 
	2629.9,467 2607.3,425.8 2581.4,391.2 2554.1,363 2523.1,339.6 2488.2,320.6 2450.7,306.6 2411.7,297.2 2372.6,292.2 2332.9,292.2 
	2293.3,296.8 2253.8,305.8 2216.2,318.5 2179.4,336.2 2145.8,359.1 2114,390.2 2088.3,426.2 2069.2,464.9 2056,505.8 2047.9,548.1 
	2043.5,589.5 2041.6,631.1 2041.2,672.7 2041.7,715.8 2042.7,761 2043.9,806.4 2044.4,852.9 2043.8,895.6 2041.5,936.6 
	2037.1,977.9 2029.2,1019.6 2012.3,1071.6 1987,1118.9 1953.7,1159 1917,1188.2 1877.5,1209.1 1836.8,1222.9 1795.6,1230.8 
	1754.5,1234.4 1713.9,1235.6 1673.7,1235.9 1633.7,1236.1 1594,1236.6 1554.3,1236.9 1514.5,1237.2 1474.8,1237.6 1435.1,1237.9 "/>
<polyline class="st1" points="1435.1,1237.9 1395.4,1238.1 1355.7,1238.4 1316,1238.7 1276.3,1238.9 1236.5,1239.1 1196.8,1239.4 
	1157.1,1239.6 1117.4,1239.7 1077.7,1239.9 1038,1240.1 998.3,1240.3 958.6,1240.8 918.8,1241.3 879.1,1241.8 839.4,1242.7 
	799.7,1244.1 760.1,1246.5 720.5,1249.9 681,1254.2 641.6,1258.9 602.1,1263.5 562.7,1269.2 524.1,1278.3 488.1,1292.3 
	454.4,1311.9 424,1337.1 397.4,1367 374.4,1401 355.6,1436 340.6,1472.7 329.4,1510.8 321.3,1549.7 315.1,1588.9 309.6,1628.3 
	304.6,1667.7 300.1,1707.2 296.5,1746.7 296.5,1746.7 293.9,1786.3 292.7,1826 294,1865.7 299.3,1905 309.4,1942 325.2,1978.2 
	346.7,2011.2 373.8,2040.3 405.7,2064.9 441.4,2084.6 478.5,2098.6 517,2108 556.4,2113.6 596,2117 635.7,2118.8 675.4,2119.9 
	715,2120.5 754.6,2119.4 793.7,2114.8 831.5,2104.9 867.2,2088.9 899.9,2066.8 929.4,2039.7 956,2009.3 980.8,1977.5 1005.3,1946 
	1031,1915.7 1059.1,1888.2 1090.4,1864.8 1124.9,1846.2 1162.2,1833.3 1201.1,1826.3 1240.7,1825.7 1280.2,1831 1318.4,1842.6 
	1354.6,1860.4 1387.3,1883.2 1416.8,1910 1443.2,1939.7 1467.8,1970.9 1492,2002.3 1517.7,2032.3 1546.4,2059.2 1578.8,2081.2 
	1614.8,2097.1 1653.4,2106.8 1693.5,2111.2 1733.5,2112.4 1773.4,2112.2 1813.3,2111.2 1853,2109.7 1892.7,2107.5 1932.3,2104.6 
	1971.7,2100.1 2010.5,2093.1 2048.3,2082.1 2083.8,2065.7 2115.7,2043.3 2142.3,2014.8 2162.5,1981.2 2175.8,1943.9 2183.1,1904.3 
	2186.8,1863.6 2190.7,1823.2 2198.2,1784 2211.2,1746.9 2230.3,1712.6 2255,1682.1 2283.8,1655.8 2316.4,1632.7 2351.6,1613.6 
	2388.7,1598.2 2426.7,1584.9 2464.5,1572 2501.3,1557 2535.5,1538 2566.2,1513.7 2591.7,1484.6 2612.1,1451.2 2627.1,1414.3 
	2638,1373.7 2645.2,1332.1 2650.8,1288.6 2655.2,1244.5 2658.7,1199.8 2661.4,1154.6 2663.3,1108.7 2664.6,1062.8 2665.5,1016.9 
	2666.1,968 2666.5,916.6 2667.3,864.8 2668.2,813 2669,761.3 2669.4,710 2668.4,658.7 2665.4,608.9 2658.7,559.9 2647.2,512.4 
	2629.9,467 2607.3,425.8 2581.4,391.2 2554.1,363 2523.1,339.6 2488.2,320.6 2450.7,306.6 2411.7,297.2 2372.6,292.2 2332.9,292.2 
	2293.3,296.8 2253.8,305.8 2216.2,318.5 2179.4,336.2 2145.8,359.1 2114,390.2 2088.3,426.2 2069.2,464.9 2056,505.8 2047.9,548.1 
	2043.5,589.5 2041.6,631.1 2041.2,672.7 2041.7,715.8 2042.7,761 2043.9,806.4 2044.4,852.9 2043.8,895.6 2041.5,936.6 
	2037.1,977.9 2029.2,1019.6 2012.3,1071.6 1987,1118.9 1953.7,1159 1917,1188.2 1877.5,1209.1 1836.8,1222.9 1795.6,1230.8 
	1754.5,1234.4 1713.9,1235.6 1673.7,1235.9 1633.7,1236.1 1594,1236.6 1554.3,1236.9 1514.5,1237.2 1474.8,1237.6 1435.1,1237.9 "/>
<polyline class="st2" points="1435.1,1237.9 1395.4,1238.1 1355.7,1238.4 1316,1238.7 1276.3,1238.9 1236.5,1239.1 1196.8,1239.4 
	1157.1,1239.6 1117.4,1239.7 1077.7,1239.9 1038,1240.1 998.3,1240.3 958.6,1240.8 918.8,1241.3 879.1,1241.8 839.4,1242.7 
	799.7,1244.1 760.1,1246.5 720.5,1249.9 681,1254.2 641.6,1258.9 602.1,1263.5 562.7,1269.2 524.1,1278.3 488.1,1292.3 
	454.4,1311.9 424,1337.1 397.4,1367 374.4,1401 355.6,1436 340.6,1472.7 329.4,1510.8 321.3,1549.7 315.1,1588.9 309.6,1628.3 
	304.6,1667.7 300.1,1707.2 296.5,1746.7 296.5,1746.7 293.9,1786.3 292.7,1826 294,1865.7 299.3,1905 309.4,1942 325.2,1978.2 
	346.7,2011.2 373.8,2040.3 405.7,2064.9 441.4,2084.6 478.5,2098.6 517,2108 556.4,2113.6 596,2117 635.7,2118.8 675.4,2119.9 
	715,2120.5 754.6,2119.4 793.7,2114.8 831.5,2104.9 867.2,2088.9 899.9,2066.8 929.4,2039.7 956,2009.3 980.8,1977.5 1005.3,1946 
	1031,1915.7 1059.1,1888.2 1090.4,1864.8 1124.9,1846.2 1162.2,1833.3 1201.1,1826.3 1240.7,1825.7 1280.2,1831 1318.4,1842.6 
	1354.6,1860.4 1387.3,1883.2 1416.8,1910 1443.2,1939.7 1467.8,1970.9 1492,2002.3 1517.7,2032.3 1546.4,2059.2 1578.8,2081.2 
	1614.8,2097.1 1653.4,2106.8 1693.5,2111.2 1733.5,2112.4 1773.4,2112.2 1813.3,2111.2 1853,2109.7 1892.7,2107.5 1932.3,2104.6 
	1971.7,2100.1 2010.5,2093.1 2048.3,2082.1 2083.8,2065.7 2115.7,2043.3 2142.3,2014.8 2162.5,1981.2 2175.8,1943.9 2183.1,1904.3 
	2186.8,1863.6 2190.7,1823.2 2198.2,1784 2211.2,1746.9 2230.3,1712.6 2255,1682.1 2283.8,1655.8 2316.4,1632.7 2351.6,1613.6 
	2388.7,1598.2 2426.7,1584.9 2464.5,1572 2501.3,1557 2535.5,1538 2566.2,1513.7 2591.7,1484.6 2612.1,1451.2 2627.1,1414.3 
	2638,1373.7 2645.2,1332.1 2650.8,1288.6 2655.2,1244.5 2658.7,1199.8 2661.4,1154.6 2663.3,1108.7 2664.6,1062.8 2665.5,1016.9 
	2666.1,968 2666.5,916.6 2667.3,864.8 2668.2,813 2669,761.3 2669.4,710 2668.4,658.7 2665.4,608.9 2658.7,559.9 2647.2,512.4 
	2629.9,467 2607.3,425.8 2581.4,391.2 2554.1,363 2523.1,339.6 2488.2,320.6 2450.7,306.6 2411.7,297.2 2372.6,292.2 2332.9,292.2 
	2293.3,296.8 2253.8,305.8 2216.2,318.5 2179.4,336.2 2145.8,359.1 2114,390.2 2088.3,426.2 2069.2,464.9 2056,505.8 2047.9,548.1 
	2043.5,589.5 2041.6,631.1 2041.2,672.7 2041.7,715.8 2042.7,761 2043.9,806.4 2044.4,852.9 2043.8,895.6 2041.5,936.6 
	2037.1,977.9 2029.2,1019.6 2012.3,1071.6 1987,1118.9 1953.7,1159 1917,1188.2 1877.5,1209.1 1836.8,1222.9 1795.6,1230.8 
	1754.5,1234.4 1713.9,1235.6 1673.7,1235.9 1633.7,1236.1 1594,1236.6 1554.3,1236.9 1514.5,1237.2 1474.8,1237.6 1435.1,1237.9 "/>
<g>
	<g>
		<line class="st3" x1="1435.1" y1="1237.9" x2="1403.9" y2="1238.1"/>
		<polyline class="st4" points="1342,1238.5 1316,1238.7 1276.3,1238.9 1236.5,1239.1 1196.8,1239.4 1157.1,1239.6 1117.4,1239.7 
			1077.7,1239.9 1038,1240.1 998.3,1240.3 958.6,1240.8 918.8,1241.3 879.1,1241.8 839.4,1242.7 799.7,1244.1 760.1,1246.5 
			720.5,1249.9 681,1254.2 641.6,1258.9 602.1,1263.5 562.7,1269.2 524.1,1278.3 488.1,1292.3 454.4,1311.9 424,1337.1 397.4,1367 
			374.4,1401 355.6,1436 340.6,1472.7 329.4,1510.8 321.3,1549.7 315.1,1588.9 309.6,1628.3 304.6,1667.7 300.1,1707.2 
			296.5,1746.7 293.9,1786.3 292.7,1826 294,1865.7 299.3,1905 309.4,1942 325.2,1978.2 346.7,2011.2 373.8,2040.3 405.7,2064.9 
			441.4,2084.6 478.5,2098.6 517,2108 556.4,2113.6 596,2117 635.7,2118.8 675.4,2119.9 715,2120.5 754.6,2119.4 793.7,2114.8 
			831.5,2104.9 867.2,2088.9 899.9,2066.8 929.4,2039.7 956,2009.3 980.8,1977.5 1005.3,1946 1031,1915.7 1059.1,1888.2 
			1090.4,1864.8 1124.9,1846.2 1162.2,1833.3 1201.1,1826.3 1240.7,1825.7 1280.2,1831 1318.4,1842.6 1354.6,1860.4 1387.3,1883.2 
			1416.8,1910 1443.2,1939.7 1467.8,1970.9 1492,2002.3 1517.7,2032.3 1546.4,2059.2 1578.8,2081.2 1614.8,2097.1 1653.4,2106.8 
			1693.5,2111.2 1733.5,2112.4 1773.4,2112.2 1813.3,2111.2 1853,2109.7 1892.7,2107.5 1932.3,2104.6 1971.7,2100.1 2010.5,2093.1 
			2048.3,2082.1 2083.8,2065.7 2115.7,2043.3 2142.3,2014.8 2162.5,1981.2 2175.8,1943.9 2183.1,1904.3 2186.8,1863.6 
			2190.7,1823.2 2198.2,1784 2211.2,1746.9 2230.3,1712.6 2255,1682.1 2283.8,1655.8 2316.4,1632.7 2351.6,1613.6 2388.7,1598.2 
			2426.7,1584.9 2464.5,1572 2501.3,1557 2535.5,1538 2566.2,1513.7 2591.7,1484.6 2612.1,1451.2 2627.1,1414.3 2638,1373.7 
			2645.2,1332.1 2650.8,1288.6 2655.2,1244.5 2658.7,1199.8 2661.4,1154.6 2663.3,1108.7 2664.6,1062.8 2665.5,1016.9 2666.1,968 
			2666.5,916.6 2667.3,864.8 2668.2,813 2669,761.3 2669.4,710 2668.4,658.7 2665.4,608.9 2658.7,559.9 2647.2,512.4 2629.9,467 
			2607.3,425.8 2581.4,391.2 2554.1,363 2523.1,339.6 2488.2,320.6 2450.7,306.6 2411.7,297.2 2372.6,292.2 2332.9,292.2 
			2293.3,296.8 2253.8,305.8 2216.2,318.5 2179.4,336.2 2145.8,359.1 2114,390.2 2088.3,426.2 2069.2,464.9 2056,505.8 
			2047.9,548.1 2043.5,589.5 2041.6,631.1 2041.2,672.7 2041.7,715.8 2042.7,761 2043.9,806.4 2044.4,852.9 2043.8,895.6 
			2041.5,936.6 2037.1,977.9 2029.2,1019.6 2012.3,1071.6 1987,1118.9 1953.7,1159 1917,1188.2 1877.5,1209.1 1836.8,1222.9 
			1795.6,1230.8 1754.5,1234.4 1713.9,1235.6 1673.7,1235.9 1633.7,1236.1 1594,1236.6 1554.3,1236.9 1514.5,1237.2 1497.3,1237.4 
					"/>
		<line class="st3" x1="1466.3" y1="1237.7" x2="1435.1" y2="1237.9"/>
	</g>
</g>
</svg>
