<svg xmlns="http://www.w3.org/2000/svg" width="4052" height="2569" viewBox="0 0 4052 2569">
  <g fill="none" fill-rule="evenodd" transform="translate(197 197.324)">
    <path stroke="#84E29C" stroke-width="393.12" d="M613,7.67597677 C-79,7.67597677 58,683.175977 3.63797881e-12,1683.17598 C11.7811587,1873.28522 170.717904,2055.84768 458,2120.17598 C856,2144.67598 1039.5,2174.67598 1353,2174.67598 C1947.5,2174.67598 1829.20575,1934.67598 2299.5,2012.67598 C2504.36683,2046.65388 3502.13625,2306.56417 3634.88985,1704.42226 C3673.88482,1527.54942 3539.5,1249.17598 3603.5,893.675977 C3856,-26.8240232 3174.5,7.67597677 2842,113.175977 C2567.39482,259.059976 2327,195.175977 2055,39.6759768 C1832.5,-1.60652215 1254.00302,-7.60652215 613,7.67597677 Z" stroke-linejoin="round"/>
    <path stroke="#FFFFFF" stroke-width="373.36" d="M613,7.67597677 C-79,7.67597677 58,683.175977 2.27373675e-13,1683.17598 C11.7811587,1873.28522 170.717904,2055.84768 458,2120.17598 C856,2144.67598 1039.5,2174.67598 1353,2174.67598 C1947.5,2174.67598 1829.20575,1934.67598 2299.5,2012.67598 C2504.36683,2046.65388 3502.13625,2306.56417 3634.88985,1704.42226 C3673.88482,1527.54942 3539.5,1249.17598 3603.5,893.675977 C3856,-26.8240232 3174.5,7.67597677 2842,113.175977 C2567.39482,259.059976 2327,195.175977 2055,39.6759768 C1832.5,-1.60652215 1254.00302,-7.60652215 613,7.67597677 Z" stroke-linejoin="round"/>
    <path stroke="#313D46" stroke-width="312" d="M613,7.67597677 C-79,7.67597677 58,683.175977 2.27373675e-13,1683.17598 C11.7811587,1873.28522 170.717904,2055.84768 458,2120.17598 C856,2144.67598 1039.5,2174.67598 1353,2174.67598 C1947.5,2174.67598 1829.20575,1934.67598 2299.5,2012.67598 C2504.36683,2046.65388 3502.13625,2306.56417 3634.88985,1704.42226 C3673.88482,1527.54942 3539.5,1249.17598 3603.5,893.675977 C3856,-26.8240232 3174.5,7.67597677 2842,113.175977 C2567.39482,259.059976 2327,195.175977 2055,39.6759768 C1832.5,-1.60652215 1254.00302,-7.60652215 613,7.67597677 Z" stroke-linejoin="round"/>
    <path stroke="#FF9900" stroke-width="20.8" d="M613,7.67597677 C-79,7.67597677 58,683.175977 2.27373675e-13,1683.17598 C11.7811587,1873.28522 170.717904,2055.84768 458,2120.17598 C856,2144.67598 1039.5,2174.67598 1353,2174.67598 C1947.5,2174.67598 1829.20575,1934.67598 2299.5,2012.67598 C2504.36683,2046.65388 3502.13625,2306.56417 3634.88985,1704.42226 C3673.88482,1527.54942 3539.5,1249.17598 3603.5,893.675977 C3856,-26.8240232 3174.5,7.67597677 2842,113.175977 C2567.39482,259.059976 2327,195.175977 2055,39.6759768 C1832.5,-1.60652215 1254.00302,-7.60652215 613,7.67597677 Z" stroke-dasharray="62.4"/>
  </g>
</svg>
